PathFileType	4	(X/Y/Z)	Patient4_TMGait_0pt5_01_left_21.trc.trc
DataRate	CameraRate	NumFrames	NumMarkers	Units	OrigDataRate	OrigDataStartFrame	OrigNumFrames
74.468085106383	74.468085106383	4	33	mm	74.468085106383	89	       141
Frame#	Time	L.ASIS			Sacral			L.Shoulder			Chest			R.Shoulder			Neck			R.ASIS			R.Thigh.Superior			R.Thigh.Lateral			R.Thigh.Inferior			R.Patella			L.Thigh.Superior			L.Thigh.Lateral			L.Thigh.Inferior			L.Patella			L.Shank.Superior			L.Shank.Lateral			L.Shank.Inferior			R.Shank.Superior			R.Shank.Lateral			R.Shank.Inferior			R.Heel			R.Midfoot.Superior			R.Midfoot.Lateral			R.Toe			L.Heel			L.Midfoot.Lateral			L.Midfoot.Superior			L.Toe			L.Elbow			L.Wrist			R.Elbow			R.Wrist			
		X1	Y1	Z1	X2	Y2	Z2	X3	Y3	Z3	X4	Y4	Z4	X5	Y5	Z5	X6	Y6	Z6	X7	Y7	Z7	X8	Y8	Z8	X9	Y9	Z9	X10	Y10	Z10	X11	Y11	Z11	X12	Y12	Z12	X13	Y13	Z13	X14	Y14	Z14	X15	Y15	Z15	X16	Y16	Z16	X17	Y17	Z17	X18	Y18	Z18	X19	Y19	Z19	X20	Y20	Z20	X21	Y21	Z21	X22	Y22	Z22	X23	Y23	Z23	X24	Y24	Z24	X25	Y25	Z25	X26	Y26	Z26	X27	Y27	Z27	X28	Y28	Z28	X29	Y29	Z29	X30	Y30	Z30	X31	Y31	Z31	X32	Y32	Z32	X33	Y33	Z33	

89	29.261714285714	957.395117016525	962.071818100543	352.188670065276	738.390754019772	1003.816784821386	498.812740235097	911.981675176330	1437.703203289995	333.307150900689	1006.815472257696	1367.318372398664	499.155396110080	910.624394750864	1435.819693770553	669.996289072895	901.637063024474	1496.349179783528	485.098196362628	959.092994084418	939.140172359358	625.406092575004	1017.920727654103	747.636422009302	596.019453645445	942.185402891836	633.576030968185	649.825489034133	1027.880689027688	587.251304822273	573.293859128418	1037.408049238321	497.100297767897	578.858370444899	985.740964605120	739.542104996528	372.110930855246	892.313190936782	631.267348057670	303.643187370076	971.209237617887	541.969882673411	361.648467608922	959.332169754526	457.527463879083	359.096854475391	892.950899057519	400.736165758276	353.396233752244	755.537405668680	352.073639907440	302.008915682256	744.851067544634	225.083011011712	362.510895786607	1010.941914394627	407.758984213856	582.049385995706	941.411891948692	300.758407514457	638.541328312077	988.129072636564	208.246440131064	575.778479184584	858.332915170769	43.355799233682	540.308331813534	1029.182346626516	98.092293482309	577.930005770942	940.971967963960	37.080080185526	615.751919021546	1149.182379885264	44.492164358837	606.940704426869	555.627597002540	150.116576884086	399.531245304764	616.807237475288	106.433225588548	321.711179929429	719.751051556374	123.804956730862	343.052158472128	805.981158899579	32.323053856909	321.411282544050	932.825076790895	1094.002808304251	190.630543070735	1153.147259787318	955.558540559483	207.880472046258	809.173081759779	1098.680491000849	765.944891267448	849.961192359687	840.369444386594	761.570288579300	
90	29.275142857143	956.362095643759	962.514746708586	354.234761297220	738.240961906986	1004.634955131630	502.605984298022	910.990840626204	1438.317105964665	336.151221930318	1007.397928527752	1367.580313295949	500.995749780800	913.112260270941	1436.050801382139	672.907925611167	902.220841272493	1496.893601001739	488.117677909519	959.715970101764	939.544604159911	627.485595047629	1016.344378213933	746.732073617291	599.162163484550	939.028781204869	633.673898155533	652.376720788707	1024.364532883066	586.602350141101	575.900834442801	1032.731579522736	496.584605661216	581.171106399586	990.008104332467	742.296063291500	374.282106026726	900.796852673430	631.795438301073	304.896021900072	982.799860099155	544.241331129625	362.258596084342	972.256988094404	458.580425509006	358.998218062683	903.992859196061	401.807035449535	353.745922652307	764.669532252012	357.753677672745	303.083177849545	750.381849595287	231.026175612784	363.278160826453	1005.966099284785	407.454873357273	584.022754567641	935.828062832442	300.591358818386	639.878694822783	982.314203794386	208.127123809653	576.888291343904	851.706523100045	43.504772682182	540.532625387547	1022.803995662222	98.026609917764	578.350441987606	934.370448623526	37.091350971477	616.005050848462	1142.641448337017	43.921071084968	607.169792006518	558.654879407838	164.187188716014	400.739510028200	617.608349331614	117.773684638673	322.572701531282	721.622306035190	129.860155103938	343.674257599349	802.721042215727	32.123155091648	321.344821673317	928.661264579315	1093.405687878870	195.304689805030	1141.876511342265	943.237053404452	210.099087623104	817.166670229565	1097.312568953029	770.566032933598	868.698427884201	840.859771421861	766.947001621322	
91	29.288571428571	955.030869228824	962.872721446556	356.014286058120	737.801183465748	1005.410785523329	506.179670842258	909.820754465331	1438.889715574997	338.888358530275	1007.806672589647	1367.713666335272	502.675875337167	915.479447744247	1436.118094458404	675.679790482022	902.762734300977	1497.373443724818	491.043670886964	960.119360828889	939.954610216520	629.357182053081	1014.591909902938	745.974254173486	602.016169192582	935.853658029418	633.809882938666	654.734198473509	1020.822680334651	586.049792413858	578.316909894648	1028.037150987384	496.143050331838	583.332963821485	993.939245401806	745.294461512303	376.167967089989	908.907241779851	632.761554664785	305.819987533846	993.896284830323	547.067137525906	362.529601808333	984.858571200322	460.293503332362	358.630720686572	915.049006101593	403.357615360106	353.823629126374	774.054670840051	363.357459833689	304.053796999884	756.703447040623	236.917509269224	364.028692942471	1000.983671011048	407.210052586588	585.871016723286	930.218973408614	300.509130890215	641.128809940419	976.483218906087	208.061874564529	577.960611043920	845.044984499707	43.703261781041	540.783322047854	1016.407355720351	97.973750843049	578.778934344928	927.734624149326	37.102311650739	616.236365867623	1136.060683216602	43.345467247337	607.390579998715	563.045393650265	177.165727377541	402.225736247368	619.905169910570	128.564476602142	323.603507250650	724.751452569699	136.027593809401	344.364443358597	801.279785209800	32.361782732508	321.111449454102	924.099169308446	1092.754492201191	199.966422660075	1129.353862918703	931.004951477499	212.049745271803	825.752769585574	1095.780659712120	775.255059913317	888.102612551228	841.681600904210	772.325745122469	
92	29.302000000000	953.437084552850	963.214992302339	357.569573797370	737.100681913015	1006.180916768052	509.508530856506	908.519633617704	1439.463219593617	341.513540848593	1008.042672159840	1367.776098779124	504.218370649953	917.671768894347	1436.079421757735	678.295956095407	903.264572213376	1497.829421869031	493.860860301119	960.310522913460	940.403264045903	631.035337697366	1012.678475205415	745.379106723697	604.537217985337	932.664021557046	633.987204749910	656.856157231075	1017.252605781200	585.595333235699	580.491845868651	1023.334138691833	495.779652575945	585.278680578158	997.453893051855	748.537195048849	377.757338551952	916.454677429875	634.199127010189	306.427369939468	1004.288677947237	550.445726069595	362.440491299098	996.916629902321	462.683466122353	357.949936406485	925.950101226355	405.390192815870	353.596835144538	783.538043150378	368.679103086688	304.888033844100	763.860532392823	242.474546172693	364.691306647265	996.000142605920	407.032226390925	587.542843953270	924.598653863459	300.524018742991	642.266151283720	970.636327763246	208.056729694576	578.963162002151	838.358914629192	43.952117201685	541.056096111245	1009.990070902274	97.943906782877	579.207247480729	921.073994659992	37.117494232396	616.444326442366	1129.444839845945	42.795934770511	607.605089108361	568.863675353171	188.351513475039	403.914453536369	623.881251442196	138.179077805166	324.739724245986	729.346758018493	141.939049657470	345.031062784846	802.134090166336	33.076066538993	320.670179700640	919.074750671238	1092.114635257824	204.589574704607	1115.560637124333	919.094608437173	213.761394705554	834.965858208695	1094.147705363212	779.945175880327	908.121492076162	842.913697564491	777.600866920860	
